<svg width="684" height="685" viewBox="0 0 684 685" fill="none" xmlns="http://www.w3.org/2000/svg">
<path fill-rule="evenodd" clip-rule="evenodd" d="M307.115 196.383C337.488 226.748 337.488 275.948 307.115 306.275C276.742 336.64 227.529 336.64 197.195 306.275C166.822 275.91 166.822 226.71 197.195 196.383C227.567 166.018 276.78 166.018 307.115 196.383Z" fill="#009EE3"/>
<path fill-rule="evenodd" clip-rule="evenodd" d="M487.297 376.48C517.669 406.845 517.669 456.045 487.297 486.372C456.924 516.737 407.711 516.737 377.376 486.372C347.003 456.007 347.003 406.807 377.376 376.48C407.711 346.153 456.924 346.153 487.297 376.48Z" fill="#009EE3"/>
<path fill-rule="evenodd" clip-rule="evenodd" d="M484.48 197.182C514.853 227.547 514.853 276.747 484.48 307.074C454.107 337.439 404.894 337.439 374.559 307.074C344.187 276.709 344.187 227.509 374.559 197.182C404.894 166.855 454.107 166.855 484.48 197.182Z" fill="#006EA1"/>
<path fill-rule="evenodd" clip-rule="evenodd" d="M304.337 377.279C334.709 407.644 334.709 456.844 304.337 487.171C273.964 517.498 224.751 517.536 194.416 487.171C164.043 456.806 164.043 407.606 194.416 377.279C224.751 346.952 273.964 346.952 304.337 377.279Z" fill="#006EA1"/>
<path fill-rule="evenodd" clip-rule="evenodd" d="M115.363 197.03C140.864 200.188 157.877 231.961 153.424 267.957C148.933 303.954 124.65 330.552 99.1492 327.394C73.6482 324.235 56.6349 292.462 61.0881 256.466C65.5793 220.469 89.8623 193.833 115.363 197.03Z" fill="#009EE3"/>
<path fill-rule="evenodd" clip-rule="evenodd" d="M196.167 569.819C199.326 544.324 231.107 527.315 267.113 531.767C303.119 536.257 329.724 560.534 326.564 586.028C323.405 611.523 291.624 628.532 255.619 624.08C219.613 619.628 193.008 595.313 196.167 569.819Z" fill="#006EA1"/>
<path fill-rule="evenodd" clip-rule="evenodd" d="M95.0766 357.873C120.425 353.573 145.85 379.105 151.94 414.874C157.992 450.642 142.387 483.1 117.038 487.399C91.6892 491.699 66.2644 466.167 60.1746 430.399C54.1229 394.668 69.7279 362.173 95.0766 357.873Z" fill="#009EE3"/>
<path fill-rule="evenodd" clip-rule="evenodd" d="M358.269 588.92C353.968 563.578 379.507 538.16 415.285 532.072C451.062 526.022 483.528 541.623 487.829 566.965C492.13 592.307 466.591 617.725 430.814 623.813C395.074 629.864 362.57 614.263 358.269 588.92Z" fill="#006EA1"/>
<path fill-rule="evenodd" clip-rule="evenodd" d="M30.6772 242.653C42.7426 245.127 49.1369 265.674 44.9502 288.543C40.7634 311.412 27.6323 327.964 15.567 325.491C3.5016 323.018 -2.89267 302.47 1.29405 279.601C5.48078 256.732 18.6119 240.18 30.6772 242.653Z" fill="#009EE3"/>
<path fill-rule="evenodd" clip-rule="evenodd" d="M242.221 654.102C244.695 642.04 265.248 635.647 288.123 639.833C310.997 644.019 327.554 657.146 325.08 669.209C322.606 681.271 302.053 687.664 279.178 683.478C256.304 679.292 239.747 666.165 242.221 654.102Z" fill="#009EE3"/>
<path fill-rule="evenodd" clip-rule="evenodd" d="M15.8334 360.422C27.9749 358.367 41.3344 375.224 45.7114 398.055C50.0884 420.886 43.7703 441.053 31.6288 443.108C19.4873 445.162 6.12784 428.306 1.75081 405.475C-2.62621 382.644 3.69193 362.477 15.8334 360.422Z" fill="#009EE3"/>
<path fill-rule="evenodd" clip-rule="evenodd" d="M359.449 669.513C357.394 657.375 374.255 644.019 397.092 639.643C419.928 635.267 440.101 641.584 442.156 653.722C444.211 665.86 427.35 679.216 404.514 683.592C381.677 687.968 361.505 681.651 359.449 669.513Z" fill="#009EE3"/>
<path fill-rule="evenodd" clip-rule="evenodd" d="M89.4436 528.305C99.644 517.498 124.955 525.337 146.041 545.77C167.126 566.242 175.957 591.546 165.794 602.353C155.594 613.159 130.283 605.321 109.197 584.887C88.1115 564.453 79.2813 539.111 89.4436 528.305Z" fill="#006EA1"/>
<path fill-rule="evenodd" clip-rule="evenodd" d="M520.181 603.532C509.372 593.334 517.213 568.03 537.651 546.95C558.128 525.869 583.439 517.041 594.248 527.201C605.058 537.399 597.217 562.703 576.778 583.783C556.339 604.864 530.991 613.692 520.181 603.532Z" fill="#006EA1"/>
<path fill-rule="evenodd" clip-rule="evenodd" d="M569.623 487.209C544.122 484.089 527.032 452.354 531.447 416.358C535.863 380.361 560.107 353.687 585.608 356.807C611.109 359.928 628.199 391.662 623.784 427.659C619.369 463.655 595.124 490.329 569.623 487.209Z" fill="#009EE3"/>
<path fill-rule="evenodd" clip-rule="evenodd" d="M487.487 115.143C484.366 140.638 452.623 157.723 416.617 153.309C380.611 148.895 353.93 124.656 357.051 99.1617C360.172 73.6674 391.915 56.5823 427.921 60.9963C463.927 65.4102 490.608 89.6489 487.487 115.143Z" fill="#006EA1"/>
<path fill-rule="evenodd" clip-rule="evenodd" d="M588.691 327.203C563.381 331.541 537.88 306.085 531.752 270.317C525.624 234.548 541.191 202.053 566.502 197.715C591.812 193.377 617.313 218.833 623.441 254.601C629.569 290.332 614.04 322.865 588.691 327.203Z" fill="#009EE3"/>
<path fill-rule="evenodd" clip-rule="evenodd" d="M326.526 95.1664C330.865 120.471 305.402 145.965 269.625 152.091C233.848 158.217 201.343 142.654 197.004 117.35C192.665 92.0462 218.128 66.5518 253.906 60.4255C289.683 54.2993 322.187 69.8242 326.526 95.1664Z" fill="#006EA1"/>
<path fill-rule="evenodd" clip-rule="evenodd" d="M652.71 442.917C640.645 440.482 634.212 419.934 638.323 397.066C642.434 374.197 655.565 357.606 667.63 360.08C679.696 362.515 686.128 383.063 682.017 405.932C677.907 428.8 664.776 445.391 652.71 442.917Z" fill="#009EE3"/>
<path fill-rule="evenodd" clip-rule="evenodd" d="M441.699 30.5552C439.263 42.6175 418.71 49.0482 395.836 44.9386C372.961 40.8291 356.366 27.7014 358.84 15.6391C361.276 3.57683 381.829 -2.85385 404.704 1.25569C427.579 5.36524 444.135 18.4929 441.699 30.5552Z" fill="#009EE3"/>
<path fill-rule="evenodd" clip-rule="evenodd" d="M668.163 324.273C656.021 326.328 642.624 309.509 638.209 286.679C633.794 263.848 640.074 243.681 652.215 241.588C664.357 239.533 677.754 256.352 682.169 279.183C686.546 302.051 680.304 322.219 668.163 324.273Z" fill="#009EE3"/>
<path fill-rule="evenodd" clip-rule="evenodd" d="M323.824 15.9435C325.879 28.0819 309.056 41.476 286.22 45.8899C263.383 50.3039 243.211 44.0254 241.117 31.887C239.062 19.7486 255.885 6.35458 278.722 1.94062C301.596 -2.43528 321.769 3.80514 323.824 15.9435Z" fill="#009EE3"/>
<path fill-rule="evenodd" clip-rule="evenodd" d="M527.185 90.7143C537.385 79.9078 562.696 87.7463 583.781 108.18C604.867 128.652 613.698 153.956 603.535 164.762C593.335 175.569 568.024 167.73 546.938 147.297C525.852 126.825 516.984 101.521 527.185 90.7143Z" fill="#006EA1"/>
<path fill-rule="evenodd" clip-rule="evenodd" d="M82.4784 165.904C71.6691 155.706 79.5097 130.402 99.9485 109.321C120.425 88.241 145.736 79.4131 156.545 89.5728C167.355 99.7706 159.514 125.075 139.075 146.155C118.598 167.236 93.2497 176.102 82.4784 165.904Z" fill="#006EA1"/>
</svg>
